<?xml version="1.0" encoding="utf-8"?>
<!-- Generator: Adobe Illustrator 17.0.0, SVG Export Plug-In . SVG Version: 6.00 Build 0)  -->
<!DOCTYPE svg PUBLIC "-//W3C//DTD SVG 1.1//EN" "http://www.w3.org/Graphics/SVG/1.1/DTD/svg11.dtd">
<svg version="1.1" id="Calque_1" xmlns="http://www.w3.org/2000/svg" xmlns:xlink="http://www.w3.org/1999/xlink" x="0px" y="0px"
	 width="472.693px" height="104.2px" viewBox="-519.013 292.145 472.693 104.2"
	 enable-background="new -519.013 292.145 472.693 104.2" xml:space="preserve">
<g>
	<g>
		<g>
			<g>
				<path fill="#262729" d="M-463.031,338.207c-3.45,3.278-8.022,3.968-10.265,1.639c-2.243-2.415-1.38-6.987,2.07-10.265
					s8.022-3.968,10.265-1.639C-458.718,330.358-459.667,334.929-463.031,338.207"/>
			</g>
			<g>
				<path fill="#262729" d="M-432.668,326.045c-2.588,0-4.658,4.399-4.658,9.747c0,5.434,2.07,9.747,4.658,9.747
					s4.658-4.399,4.658-9.747C-427.924,330.444-430.081,326.045-432.668,326.045"/>
			</g>
			<g>
				<path fill="#262729" d="M-461.134,301.548c0,2.588-4.399,4.658-9.747,4.658c-5.434,0-9.747-2.07-9.747-4.658
					s4.399-4.658,9.747-4.658S-461.134,298.96-461.134,301.548"/>
			</g>
			<g>
				<path fill="#262729" d="M-368.924,322.508v42.784h-9.747v-42.784h-23.031l0.259-7.936h55.378l0.259,7.936H-368.924z"/>
			</g>
			<g>
				<path fill="#262729" d="M-298.451,343.814l-0.086,0.173l19.581,21.219h-12.076l-16.217-19.236h-17.424v19.322h-9.661v-50.72
					h27.689c15.44,0,22.858,6.038,22.858,15.268C-283.874,336.827-288.963,342.606-298.451,343.814z M-307.077,321.818h-17.597
					v17.424h17.079c9.833,0,13.715-3.278,13.715-9.057C-293.966,324.923-297.416,321.818-307.077,321.818z"/>
			</g>
			<g>
				<path fill="#262729" d="M-172.17,348.299h-16.82v16.993h-9.661v-50.72h26.481c17.683,0,25.101,6.901,25.101,17.165
					C-147.068,341.226-154.573,348.299-172.17,348.299z M-172.17,321.991h-16.907v19.322h16.907c10.351,0,15.181-2.588,15.181-9.575
					C-156.988,324.837-161.819,321.991-172.17,321.991z"/>
			</g>
			<g>
				<path fill="#262729" d="M-135.941,314.573h9.833v50.72h-9.833V314.573z"/>
			</g>
			<g>
				<path fill="#262729" d="M-255.063,343.555h42.525c0-1.811,0.086-3.192,0.086-4.14l0,0l0,0c0-1.898,0-2.415,0-2.415l0,0
					c-0.776-16.562-9.747-23.29-29.328-23.462l0,0c-0.086,0-0.259,0-0.345,0c-0.173,0-0.345,0-0.431,0l0,0
					c-20.443,0.259-29.5,10.006-29.5,26.309c0,16.389,9.143,26.395,30.363,26.395c6.383,0,14.836-1.725,19.667-3.623l-2.501-7.332
					c-4.83,1.811-10.61,3.019-16.82,3.019c-15.268,0-21.737-5.434-21.737-18.287c0-12.335,5.693-18.459,20.961-18.545
					c15.009-0.086,20.702,4.485,21.219,15.526h-31.053L-255.063,343.555z"/>
			</g>
			<g>
				<g>
					<path fill="#262729" d="M-439.569,350.111c-0.431-18.632-0.259-19.753-1.121-31.053c-0.086-1.466-0.259-2.76-0.431-4.054
						c2.156,0.345,4.313,0.69,6.383,1.208c-1.466-1.208-3.709-2.674-6.901-3.968c-1.38-6.556-3.795-10.523-5.693-12.68
						c0.604,2.588,1.035,5.262,1.466,8.022c5.262,34.848-5.693,65.384-24.411,68.23c-7.849,1.208-17.683-0.345-25.791-6.124
						c6.297-3.882,13.197-7.677,20.529-11.386c9.316-4.658,18.287-9.316,26.567-13.111c0.518-1.811,0.949-3.709,1.035-5.434
						c-4.399,1.035-9.488,2.588-15.613,4.572c-8.885,3.019-13.456,4.14-15.699,3.45c-0.345-0.086-0.173,0.086-0.949-0.69
						c-0.776-0.69-2.588-6.814,1.466-16.734c2.07-5.175,3.623-9.402,4.744-12.939c-1.553,0.259-3.278,0.69-4.83,1.035
						c-3.45,7.504-7.504,15.44-12.162,23.548c-4.227,7.246-8.54,13.974-12.766,20.098c-6.728-9.747-8.281-21.219-2.329-30.535
						c7.073-11.041,31.657-20.098,59.087-17.165c0-1.208-0.086-2.415-0.259-3.709c-2.07-0.431-4.399-0.776-7.073-1.035
						c-11.3-0.863-12.335-0.69-31.053-1.121c-23.376-0.518,5.262-14.923,8.194-16.389c-23.462,2.243-41.835,22.082-41.835,46.148
						c0,25.619,20.788,46.321,46.32,46.321c4.485,0,8.798-0.69,12.939-1.898c19.494-4.14,34.503-20.616,36.401-40.8
						C-424.647,344.849-439.052,373.573-439.569,350.111z"/>
				</g>
			</g>
		</g>
		<g>
			<path fill="#262729" d="M-76.164,314.486h-10.782l-29.673,50.806h10.437c0.086,0,0.086,0,0.086,0
				c5.175-7.936,16.044-15.268,24.584-15.268c1.725,0,10.178,0,10.178,0l-3.537-6.469c0,0-5.348,0-8.195,0
				c-2.588,0-8.022,0.776-13.629,4.744l0.863-1.553l11.127-20.012l2.933-5.607h0.259l2.847,5.607l10.955,20.012l3.795,7.073
				l6.297,11.472h11.3L-76.164,314.486z"/>
		</g>
	</g>
	<g>
		<path fill="#262729" d="M-379.016,396.086v-14.923h6.297c5.175,0,7.159,2.243,7.159,7.246c0,5.003-1.811,7.677-6.987,7.677
			H-379.016L-379.016,396.086z M-372.978,385.39h-0.949v6.469h0.949c2.07,0,2.243-1.294,2.243-3.45
			C-370.822,386.339-370.994,385.39-372.978,385.39z"/>
		<path fill="#262729" d="M-360.816,381.164h5.089V396h-5.089V381.164z"/>
		<path fill="#262729" d="M-343.65,387.288h5.434v8.281c0,0-3.968,0.604-5.779,0.604c-5.607,0-6.987-2.415-6.987-7.677
			c0-5.779,1.984-7.677,6.987-7.677c2.501,0,5.607,0.776,5.607,0.776v3.882c0,0-3.192-0.259-5.175-0.259
			c-2.156,0-2.243,0.776-2.243,3.364c0,2.329,0.345,3.45,1.984,3.45c0.259,0,0.776,0,0.776,0v-1.121h-0.69L-343.65,387.288z"/>
		<path fill="#262729" d="M-333.213,381.164h5.089V396h-5.089V381.164z"/>
		<path fill="#262729" d="M-323.38,381.164h11.041v4.227h-2.846v10.696h-5.089V385.39h-3.019v-4.227H-323.38z"/>
		<path fill="#262729" d="M-306.473,381.164h7.763l3.364,14.836h-5.175l-0.431-1.725h-3.364l-0.345,1.725h-5.003L-306.473,381.164z
			 M-303.713,390.393h2.156l-0.776-5.175h-0.518L-303.713,390.393z"/>
		<path fill="#262729" d="M-291.033,396.086v-14.923h5.089v10.696h4.83v4.227H-291.033L-291.033,396.086z"/>
		<path fill="#262729" d="M-276.887,380.732h11.041v1.553h-4.658v13.801h-1.639v-13.801h-4.744V380.732z"/>
		<path fill="#262729" d="M-258.169,390.134V396h-1.725v-15.354h5.693c3.192,0,4.917,1.38,4.917,4.658
			c0,2.243-0.863,3.795-2.846,4.485l2.933,6.211h-1.898l-2.76-5.866L-258.169,390.134L-258.169,390.134z M-254.201,382.199h-3.968
			v6.469h3.968c2.329,0,3.105-1.38,3.105-3.278C-251.096,383.234-252.131,382.199-254.201,382.199z"/>
		<path fill="#262729" d="M-239.796,380.732h3.709l4.227,15.354h-1.639l-1.121-3.968h-6.556l-1.121,3.968h-1.639L-239.796,380.732z
			 M-240.831,390.566h5.779l-2.329-8.367h-1.121L-240.831,390.566z"/>
		<path fill="#262729" d="M-225.736,380.732h3.192l5.866,13.801h0.431v-13.801h1.639v15.354h-3.105l-5.952-13.801h-0.431v13.801
			h-1.725v-15.354H-225.736z"/>
		<path fill="#262729" d="M-198.478,382.371c0,0-3.105-0.345-4.313-0.345c-2.156,0-3.278,0.776-3.278,2.501
			c0,1.984,1.035,2.329,3.709,2.933c3.019,0.69,4.399,1.466,4.399,4.14c0,3.364-1.898,4.744-4.917,4.744
			c-1.811,0-4.83-0.518-4.83-0.518l0.173-1.38c0,0,3.019,0.431,4.572,0.431c2.156,0,3.278-0.949,3.278-3.105
			c0-1.725-0.949-2.243-3.364-2.674c-3.192-0.69-4.744-1.466-4.744-4.399s1.984-4.14,4.917-4.14c1.811,0,4.658,0.431,4.658,0.431
			L-198.478,382.371z"/>
		<path fill="#262729" d="M-191.319,380.732h9.143v1.466h-7.418v5.952h6.297v1.466h-6.297V396h-1.725V380.732z"/>
		<path fill="#262729" d="M-176.741,388.409c0-5.089,1.294-7.936,6.038-7.936s6.038,2.846,6.038,7.936
			c0,5.262-1.294,7.849-6.038,7.849S-176.741,393.585-176.741,388.409z M-166.39,388.409c0-4.14-0.776-6.469-4.313-6.469
			c-3.537,0-4.313,2.243-4.313,6.469c0,4.227,0.776,6.297,4.313,6.297C-167.167,394.792-166.39,392.722-166.39,388.409z"/>
		<path fill="#262729" d="M-156.039,390.134V396h-1.725v-15.354h5.693c3.192,0,4.917,1.38,4.917,4.658
			c0,2.243-0.863,3.795-2.847,4.485l2.933,6.211h-1.898l-2.76-5.866L-156.039,390.134L-156.039,390.134z M-152.071,382.199h-3.968
			v6.469h3.968c2.329,0,3.105-1.38,3.105-3.278C-148.966,383.234-150.001,382.199-152.071,382.199z"/>
		<path fill="#262729" d="M-140.427,380.732h3.105l4.313,12.939l4.313-12.939h3.105v15.354h-1.725v-13.542h-0.345l-4.485,12.939
			h-1.898l-4.485-12.939h-0.345v13.542h-1.725v-15.354H-140.427z"/>
		<path fill="#262729" d="M-115.239,380.732h3.709l4.227,15.354h-1.639l-1.121-3.968h-6.556l-1.121,3.968h-1.639L-115.239,380.732z
			 M-116.274,390.566h5.779l-2.329-8.367h-1.121L-116.274,390.566z"/>
		<path fill="#262729" d="M-103.767,380.732h11.041v1.553h-4.658v13.801h-1.639v-13.801h-4.744L-103.767,380.732L-103.767,380.732z"
			/>
		<path fill="#262729" d="M-86.774,380.732h1.725v15.354h-1.725V380.732z"/>
		<path fill="#262729" d="M-78.235,388.409c0-5.089,1.294-7.936,6.038-7.936s6.038,2.846,6.038,7.936
			c0,5.262-1.294,7.849-6.038,7.849S-78.235,393.585-78.235,388.409z M-67.884,388.409c0-4.14-0.776-6.469-4.313-6.469
			c-3.537,0-4.313,2.243-4.313,6.469c0,4.227,0.776,6.297,4.313,6.297C-68.574,394.792-67.884,392.722-67.884,388.409z"/>
		<path fill="#262729" d="M-59.258,380.732h3.192l5.866,13.801h0.431v-13.801h1.639v15.354h-3.105l-5.952-13.801h-0.431v13.801
			h-1.725v-15.354H-59.258z"/>
	</g>
</g>
</svg>
